<svg xmlns="http://www.w3.org/2000/svg" width="512" height="512" viewBox="-4 -4 32 32">
<defs>
<filter id="g" x="-60%" y="-60%" width="220%" height="220%">
  <feGaussianBlur in="SourceAlpha" stdDeviation="1.1" result="b"></feGaussianBlur>
  <feFlood flood-color="#25F5FF" flood-opacity="0.9"></feFlood>
  <feComposite in2="b" operator="in" result="glow"></feComposite>
  <feMerge><feMergeNode in="glow"></feMergeNode><feMergeNode in="glow"></feMergeNode><feMergeNode in="SourceGraphic"></feMergeNode></feMerge>
</filter>

</defs>
<g fill="none" stroke="#25F5FF" stroke-width="2" stroke-linecap="round" stroke-linejoin="round" filter="url(#g)">
<path d="m2 8 2 2-2 2 2 2-2 2"></path><path d="m22 8-2 2 2 2-2 2 2 2"></path><path d="M9 5h6a1 1 0 0 1 1 1v12a1 1 0 0 1-1 1H9a1 1 0 0 1-1-1V6a1 1 0 0 1 1-1z"></path>
</g>
</svg>