<svg xmlns="http://www.w3.org/2000/svg" width="512" height="512" viewBox="-4 -4 32 32">
<defs>
<filter id="g" x="-60%" y="-60%" width="220%" height="220%">
  <feGaussianBlur in="SourceAlpha" stdDeviation="1.1" result="b"></feGaussianBlur>
  <feFlood flood-color="#FF2FB5" flood-opacity="0.9"></feFlood>
  <feComposite in2="b" operator="in" result="glow"></feComposite>
  <feMerge><feMergeNode in="glow"></feMergeNode><feMergeNode in="glow"></feMergeNode><feMergeNode in="SourceGraphic"></feMergeNode></feMerge>
</filter>

</defs>
<g fill="none" stroke="#FF2FB5" stroke-width="2" stroke-linecap="round" stroke-linejoin="round" filter="url(#g)">
<path d="M12.22 2h-.44a2 2 0 0 0-2 2v.18a2 2 0 0 1-1 1.73l-.43.25a2 2 0 0 1-2 0l-.15-.08a2 2 0 0 0-2.73.73l-.22.38a2 2 0 0 0 .73 2.73l.15.1a2 2 0 0 1 1 1.72v.51a2 2 0 0 1-1 1.74l-.15.09a2 2 0 0 0-.73 2.73l.22.38a2 2 0 0 0 2.73.73l.15-.08a2 2 0 0 1 2 0l.43.25a2 2 0 0 1 1 1.73V20a2 2 0 0 0 2 2h.44a2 2 0 0 0 2-2v-.18a2 2 0 0 1 1-1.73l.43-.25a2 2 0 0 1 2 0l.15.08a2 2 0 0 0 2.73-.73l.22-.39a2 2 0 0 0-.73-2.73l-.15-.08a2 2 0 0 1-1-1.74v-.5a2 2 0 0 1 1-1.74l.15-.09a2 2 0 0 0 .73-2.73l-.22-.38a2 2 0 0 0-2.73-.73l-.15.08a2 2 0 0 1-2 0l-.43-.25a2 2 0 0 1-1-1.73V4a2 2 0 0 0-2-2z"></path><circle cx="12" cy="12" r="3"></circle>
</g>
</svg>