<svg xmlns="http://www.w3.org/2000/svg" width="300" height="300" viewBox="0 0 300 300"><rect x="20" y="12" width="260" height="5" rx="2.5" fill="#25F5FF" opacity="0.5"></rect><rect x="20" y="28" width="260" height="5" rx="2.5" fill="#25F5FF" opacity="0.5"></rect><rect x="20" y="44" width="260" height="5" rx="2.5" fill="#25F5FF" opacity="0.5"></rect><rect x="20" y="60" width="260" height="5" rx="2.5" fill="#25F5FF" opacity="0.5"></rect><rect x="20" y="76" width="260" height="5" rx="2.5" fill="#25F5FF" opacity="0.5"></rect><rect x="20" y="92" width="260" height="5" rx="2.5" fill="#25F5FF" opacity="0.5"></rect><rect x="20" y="108" width="260" height="5" rx="2.5" fill="#25F5FF" opacity="0.5"></rect><rect x="20" y="124" width="260" height="5" rx="2.5" fill="#25F5FF" opacity="0.5"></rect><rect x="20" y="140" width="260" height="5" rx="2.5" fill="#25F5FF" opacity="0.5"></rect><rect x="20" y="156" width="260" height="5" rx="2.5" fill="#25F5FF" opacity="0.5"></rect><rect x="20" y="172" width="260" height="5" rx="2.5" fill="#25F5FF" opacity="0.5"></rect><rect x="20" y="188" width="260" height="5" rx="2.5" fill="#25F5FF" opacity="0.5"></rect><rect x="20" y="204" width="260" height="5" rx="2.5" fill="#25F5FF" opacity="0.5"></rect><rect x="20" y="220" width="260" height="5" rx="2.5" fill="#25F5FF" opacity="0.5"></rect><rect x="20" y="236" width="260" height="5" rx="2.5" fill="#25F5FF" opacity="0.5"></rect><rect x="20" y="252" width="260" height="5" rx="2.5" fill="#25F5FF" opacity="0.5"></rect><rect x="20" y="268" width="260" height="5" rx="2.5" fill="#25F5FF" opacity="0.5"></rect><rect x="20" y="284" width="260" height="5" rx="2.5" fill="#25F5FF" opacity="0.5"></rect></svg>