<svg xmlns="http://www.w3.org/2000/svg" width="512" height="512" viewBox="-4 -4 32 32">
<defs>
<filter id="g" x="-60%" y="-60%" width="220%" height="220%">
  <feGaussianBlur in="SourceAlpha" stdDeviation="1.1" result="b"></feGaussianBlur>
  <feFlood flood-color="#FFE84D" flood-opacity="0.9"></feFlood>
  <feComposite in2="b" operator="in" result="glow"></feComposite>
  <feMerge><feMergeNode in="glow"></feMergeNode><feMergeNode in="glow"></feMergeNode><feMergeNode in="SourceGraphic"></feMergeNode></feMerge>
</filter>

</defs>
<g fill="none" stroke="#FFE84D" stroke-width="2" stroke-linecap="round" stroke-linejoin="round" filter="url(#g)">
<path d="M11.5 2.3a.53.53 0 0 1 .95 0l2.3 4.68a2.1 2.1 0 0 0 1.6 1.16l5.17.75a.53.53 0 0 1 .3.9l-3.74 3.64a2.1 2.1 0 0 0-.61 1.88l.88 5.14a.53.53 0 0 1-.77.56l-4.62-2.43a2.1 2.1 0 0 0-1.97 0L6.4 21.01a.53.53 0 0 1-.77-.56l.88-5.14a2.1 2.1 0 0 0-.61-1.88L2.16 9.8a.53.53 0 0 1 .3-.9l5.16-.76a2.1 2.1 0 0 0 1.6-1.16z"></path>
</g>
</svg>